<svg width="64" height="64" viewBox="0 0 64 64" fill="none" xmlns="http://www.w3.org/2000/svg">
<g id="Frame 1" clip-path="url(#clip0_1_2)">
<rect width="64" height="64" fill="transparent"/>
<g id="Q">
<path d="M43.888 48.928V49.056C46.704 50.2933 49.328 52.0213 51.76 54.24C54.2347 56.4587 56.24 58.912 57.776 61.6H47.728C45.4667 57.8027 43.3333 55.3493 41.328 54.24C39.3227 53.1733 36.0587 52.64 31.536 52.64C24.4533 52.64 18.7787 50.4853 14.512 46.176C10.288 41.824 8.176 35.9787 8.176 28.64C8.176 21.3013 10.288 15.4773 14.512 11.168C18.7787 6.816 24.4533 4.64 31.536 4.64C38.6187 4.64 44.272 6.816 48.496 11.168C52.7627 15.4773 54.896 21.3013 54.896 28.64C54.896 33.0773 53.9147 37.0453 51.952 40.544C50.032 44.0427 47.344 46.8373 43.888 48.928ZM21.168 40.928C23.728 43.8293 27.184 45.28 31.536 45.28C35.888 45.28 39.344 43.8293 41.904 40.928C44.464 37.984 45.744 33.888 45.744 28.64C45.744 23.392 44.464 19.3173 41.904 16.416C39.344 13.472 35.888 12 31.536 12C27.184 12 23.728 13.472 21.168 16.416C18.608 19.3173 17.328 23.392 17.328 28.64C17.328 33.888 18.608 37.984 21.168 40.928Z" fill="#8D99AE"/>
<path d="M43.888 48.928L43.3704 48.0724L42.888 48.3642V48.928H43.888ZM43.888 49.056H42.888V49.7089L43.4857 49.9715L43.888 49.056ZM51.76 54.24L51.086 54.9788L51.0925 54.9846L51.76 54.24ZM57.776 61.6V62.6H59.4992L58.6442 61.1039L57.776 61.6ZM47.728 61.6L46.8688 62.1117L47.1596 62.6H47.728V61.6ZM41.328 54.24L41.8121 53.365L41.8049 53.361L41.7976 53.3571L41.328 54.24ZM14.512 46.176L13.7944 46.8725L13.8014 46.8796L14.512 46.176ZM14.512 11.168L13.7979 10.4679L13.7979 10.468L14.512 11.168ZM48.496 11.168L47.7784 11.8645L47.7854 11.8716L48.496 11.168ZM51.952 40.544L51.0798 40.0547L51.0753 40.0629L51.952 40.544ZM21.168 40.928L20.4134 41.5842L20.4182 41.5896L21.168 40.928ZM41.904 40.928L42.6539 41.5896L42.6586 41.5842L41.904 40.928ZM41.904 16.416L41.1494 17.0722L41.1542 17.0776L41.904 16.416ZM21.168 16.416L21.9179 17.0776L21.9226 17.0722L21.168 16.416ZM42.888 48.928V49.056H44.888V48.928H42.888ZM43.4857 49.9715C46.1954 51.1621 48.7287 52.8282 51.086 54.9788L52.434 53.5012C49.9273 51.2144 47.2126 49.4245 44.2903 48.1405L43.4857 49.9715ZM51.0925 54.9846C53.4932 57.137 55.4287 59.5078 56.9078 62.0961L58.6442 61.1039C57.0513 58.3162 54.9761 55.7804 52.4275 53.4954L51.0925 54.9846ZM57.776 60.6H47.728V62.6H57.776V60.6ZM48.5872 61.0883C46.3052 57.2563 44.0594 54.6082 41.8121 53.365L40.8439 55.115C42.6073 56.0905 44.6282 58.3491 46.8688 62.1117L48.5872 61.0883ZM41.7976 53.3571C39.5643 52.1692 36.0905 51.64 31.536 51.64V53.64C36.0268 53.64 39.081 54.1775 40.8584 55.1229L41.7976 53.3571ZM31.536 51.64C24.6718 51.64 19.2699 49.5602 15.2226 45.4724L13.8014 46.8796C18.2874 51.4105 24.2349 53.64 31.536 53.64V51.64ZM15.2296 45.4795C11.2235 41.352 9.176 35.7767 9.176 28.64H7.176C7.176 36.1807 9.35255 42.296 13.7944 46.8725L15.2296 45.4795ZM9.176 28.64C9.176 21.503 11.2235 15.9515 15.2261 11.868L13.7979 10.468C9.35246 15.0032 7.176 21.0997 7.176 28.64H9.176ZM15.2261 11.8681C19.274 7.73919 24.6748 5.64 31.536 5.64V3.64C24.2319 3.64 18.2833 5.8928 13.7979 10.4679L15.2261 11.8681ZM31.536 5.64C38.3975 5.64 43.7745 7.73919 47.7784 11.8645L49.2136 10.4715C44.7695 5.89281 38.8398 3.64 31.536 3.64V5.64ZM47.7854 11.8716C51.8289 15.9555 53.896 21.5058 53.896 28.64H55.896C55.896 21.0969 53.6964 14.9991 49.2066 10.4644L47.7854 11.8716ZM53.896 28.64C53.896 32.9246 52.95 36.7209 51.0799 40.0547L52.8241 41.0333C54.8793 37.3697 55.896 33.2301 55.896 28.64H53.896ZM51.0753 40.0629C49.2411 43.4054 46.6778 46.0716 43.3704 48.0724L44.4056 49.7836C48.0102 47.603 50.8229 44.68 52.8287 41.0251L51.0753 40.0629ZM20.4182 41.5896C23.1929 44.7343 26.937 46.28 31.536 46.28V44.28C27.431 44.28 24.2631 42.9244 21.9178 40.2664L20.4182 41.5896ZM31.536 46.28C36.135 46.28 39.8791 44.7343 42.6538 41.5896L41.1542 40.2664C38.8089 42.9244 35.641 44.28 31.536 44.28V46.28ZM42.6586 41.5842C45.4244 38.4035 46.744 34.0452 46.744 28.64H44.744C44.744 33.7308 43.5036 37.5645 41.1494 40.2718L42.6586 41.5842ZM46.744 28.64C46.744 23.2359 45.4248 18.8948 42.6538 15.7544L41.1542 17.0776C43.5032 19.7398 44.744 23.5481 44.744 28.64H46.744ZM42.6586 15.7598C39.8854 12.5707 36.14 11 31.536 11V13C35.636 13 38.8026 14.3733 41.1494 17.0722L42.6586 15.7598ZM31.536 11C26.932 11 23.1866 12.5707 20.4134 15.7598L21.9226 17.0722C24.2694 14.3733 27.436 13 31.536 13V11ZM20.4182 15.7544C17.6472 18.8948 16.328 23.2359 16.328 28.64H18.328C18.328 23.5481 19.5688 19.7398 21.9178 17.0776L20.4182 15.7544ZM16.328 28.64C16.328 34.0452 17.6476 38.4035 20.4134 41.5842L21.9226 40.2718C19.5684 37.5645 18.328 33.7308 18.328 28.64H16.328Z" fill="#edf2f4"/>
</g>
</g>
<defs>
<clipPath id="clip0_1_2">
<rect width="64" height="64" fill="transparent"/>
</clipPath>
</defs>
</svg>
